<svg width="24" height="25" viewBox="0 0 24 25" fill="none" xmlns="http://www.w3.org/2000/svg">
<path fill-rule="evenodd" clip-rule="evenodd" d="M3.59998 12.5C3.59998 12.0029 4.00292 11.6 4.49998 11.6L17.2655 11.6L12.2762 6.84875C11.9179 6.50423 11.9067 5.9345 12.2512 5.5762C12.5957 5.21791 13.1655 5.20674 13.5238 5.55125L20.1238 11.8512C20.3002 12.0209 20.4 12.2552 20.4 12.5C20.4 12.7448 20.3002 12.9791 20.1238 13.1487L13.5238 19.4487C13.1655 19.7933 12.5957 19.7821 12.2512 19.4238C11.9067 19.0655 11.9179 18.4958 12.2762 18.1512L17.2655 13.4L4.49998 13.4C4.00292 13.4 3.59998 12.9971 3.59998 12.5Z" fill="white"/>
</svg>
